<?xml version="1.0" standalone="no"?>
<!DOCTYPE svg PUBLIC "-//W3C//DTD SVG 20010904//EN"
 "http://www.w3.org/TR/2001/REC-SVG-20010904/DTD/svg10.dtd">
<svg version="1.0" xmlns="http://www.w3.org/2000/svg"
 width="105.000000pt" height="100.000000pt" viewBox="0 0 105.000000 100.000000"
 preserveAspectRatio="xMidYMid meet">
<metadata>
Created by potrace 1.15, written by Peter Selinger 2001-2017
</metadata>
<g transform="translate(0.000000,100.000000) scale(0.100000,-0.100000)"
fill="#000000" stroke="none">
<path d="M466 962 c-6 -10 -1 -60 7 -68 3 -3 15 -3 27 1 17 5 20 12 16 31 -4
14 -2 24 4 24 5 0 10 -14 10 -31 0 -20 4 -29 13 -26 6 2 13 9 13 15 4 32 7 35
13 12 5 -18 14 -25 31 -25 14 0 31 -6 39 -13 8 -8 22 -11 33 -9 10 3 16 2 14
-2 -3 -4 11 -14 30 -23 23 -10 34 -12 35 -4 0 6 5 0 10 -14 l10 -25 19 25 c22
28 27 21 8 -10 -16 -26 -3 -37 20 -17 10 10 24 17 30 17 7 0 12 4 12 8 0 12
-44 52 -57 52 -6 0 -13 6 -16 13 -3 9 -10 9 -28 -2 -22 -13 -23 -13 -10 3 16
19 15 21 -16 30 -15 5 -23 3 -23 -4 0 -7 -8 -3 -17 8 -10 11 -32 23 -50 27
-27 5 -32 3 -36 -17 -4 -20 -4 -20 -6 5 -1 27 -2 27 -65 27 -36 0 -67 -4 -70
-8z"/>
<path d="M260 888 c-19 -13 -36 -33 -38 -45 -2 -15 -8 -20 -19 -16 -12 5 -14
1 -9 -15 4 -11 2 -23 -3 -27 -7 -3 -8 0 -5 9 11 28 -13 17 -40 -19 -15 -19
-24 -40 -21 -45 3 -6 2 -10 -4 -10 -20 0 -33 -38 -21 -61 9 -16 8 -25 -5 -39
-11 -12 -16 -29 -13 -45 3 -16 1 -25 -7 -25 -7 0 -12 -11 -12 -25 0 -14 2 -25
5 -25 13 0 42 46 42 66 0 13 5 26 11 29 6 4 8 13 5 20 -3 8 6 21 20 29 13 9
24 25 24 36 0 11 5 20 10 20 6 0 8 11 4 28 -6 24 -5 25 8 14 12 -10 18 -10 23
-1 4 6 3 14 -3 18 -7 4 -8 12 -2 21 7 10 10 11 10 3 0 -7 7 -13 15 -13 8 0 15
7 15 15 0 8 5 15 10 15 15 0 70 42 70 53 0 5 -7 6 -16 3 -14 -5 -15 -4 -4 9 7
9 8 15 2 15 -6 0 -12 7 -14 16 -2 13 -8 12 -38 -8z"/>
<path d="M851 789 c-21 -17 -23 -23 -13 -37 7 -9 17 -27 24 -40 7 -15 17 -20
29 -17 9 3 20 1 24 -5 3 -5 -1 -10 -9 -10 -28 0 -16 -42 14 -52 8 -2 15 -13
15 -24 0 -10 5 -18 11 -17 6 1 9 -10 6 -26 -2 -17 3 -34 13 -44 9 -9 13 -22 9
-28 -4 -7 -1 -10 7 -7 17 6 19 64 2 61 -9 -2 -11 6 -7 25 4 19 1 32 -10 41
-20 17 -21 41 -1 41 18 0 18 5 5 30 -6 11 -16 18 -23 16 -6 -1 -9 -1 -4 1 12
7 8 27 -12 53 -16 20 -22 22 -35 11 -8 -7 -20 -10 -26 -6 -8 5 -4 12 9 22 12
8 19 19 16 24 -9 13 -17 11 -44 -12z"/>
<path d="M564 598 c-59 -28 -50 -103 16 -133 72 -32 60 -97 -14 -77 -32 9 -36
8 -36 -8 0 -18 -25 -27 -78 -28 -18 -1 -21 2 -13 12 11 13 5 26 -10 26 -5 0
-16 -8 -26 -19 -10 -10 -39 -21 -67 -25 -54 -7 -66 -17 -66 -56 0 -49 6 -50
295 -50 251 0 273 1 288 18 23 25 21 59 -3 79 -11 10 -20 25 -20 35 0 15 -9
18 -50 18 l-50 0 0 105 0 105 -25 0 c-25 0 -25 -1 -26 -82 0 -66 -3 -78 -11
-61 -6 12 -30 32 -54 45 -58 30 -55 52 9 56 38 3 47 7 47 21 0 31 -61 41 -106
19z"/>
</g>
</svg>
