<?xml version="1.0" standalone="no"?>
<!DOCTYPE svg PUBLIC "-//W3C//DTD SVG 20010904//EN"
 "http://www.w3.org/TR/2001/REC-SVG-20010904/DTD/svg10.dtd">
<svg version="1.0" xmlns="http://www.w3.org/2000/svg"
 width="105.000000pt" height="100.000000pt" viewBox="0 0 105.000000 100.000000"
 preserveAspectRatio="xMidYMid meet">
<metadata>
Created by potrace 1.15, written by Peter Selinger 2001-2017
</metadata>
<g transform="translate(0.000000,100.000000) scale(0.100000,-0.100000)"
fill="#000000" stroke="none">
<path d="M466 962 c-6 -10 -1 -60 7 -68 3 -3 15 -3 27 1 17 5 20 12 16 31 -4
14 -2 24 4 24 5 0 10 -14 10 -31 0 -36 21 -35 31 2 l6 24 4 -25 c3 -19 10 -25
29 -25 14 0 31 -6 39 -13 8 -8 22 -11 33 -9 10 3 16 2 14 -2 -3 -4 11 -14 30
-23 23 -10 34 -12 35 -4 0 6 5 0 10 -14 l10 -25 20 24 c21 26 25 21 7 -9 -16
-26 -3 -37 20 -17 10 10 24 17 30 17 7 0 12 4 12 8 0 12 -44 52 -57 52 -6 0
-13 6 -16 13 -3 9 -9 9 -28 -2 -19 -10 -21 -10 -11 0 17 19 15 26 -10 32 -13
4 -26 1 -30 -6 -5 -8 -8 -7 -8 5 0 11 -13 21 -37 27 -51 14 -51 14 -56 -11 -4
-20 -4 -19 -6 5 -1 27 -2 27 -65 27 -36 0 -67 -4 -70 -8z"/>
<path d="M260 888 c-19 -13 -36 -33 -38 -45 -2 -15 -8 -20 -19 -16 -12 5 -14
1 -9 -15 4 -11 2 -23 -3 -27 -7 -3 -8 0 -5 9 11 28 -13 17 -40 -19 -15 -19
-24 -40 -21 -45 3 -6 2 -10 -4 -10 -20 0 -33 -38 -21 -61 9 -16 8 -25 -5 -39
-11 -12 -16 -29 -13 -45 3 -16 1 -25 -7 -25 -7 0 -12 -11 -12 -25 0 -14 2 -25
5 -25 13 0 42 46 42 66 0 13 5 26 10 29 5 3 10 14 10 23 0 10 9 23 20 30 11 7
20 21 20 32 0 11 5 20 10 20 6 0 8 11 4 28 -6 24 -5 25 8 14 12 -10 18 -10 23
-1 4 6 3 14 -3 18 -7 4 -8 12 -2 21 7 10 10 11 10 3 0 -7 7 -13 15 -13 8 0 15
7 15 15 0 8 5 15 10 15 15 0 70 42 70 53 0 5 -7 6 -16 3 -14 -5 -15 -4 -4 9 7
9 8 15 2 15 -6 0 -12 7 -14 16 -2 13 -8 12 -38 -8z"/>
<path d="M851 789 c-21 -17 -23 -23 -13 -37 7 -9 17 -27 24 -40 7 -15 17 -20
29 -17 9 3 20 1 24 -5 3 -5 -1 -10 -9 -10 -28 0 -16 -42 14 -52 8 -2 15 -13
15 -24 0 -10 5 -18 11 -17 6 1 9 -10 6 -26 -2 -17 3 -34 12 -44 22 -22 20 -30
-5 -22 -20 7 -21 4 -17 -29 2 -20 1 -36 -2 -36 -3 0 -7 -12 -8 -27 -3 -35 -49
-129 -82 -167 -41 -48 -70 -76 -79 -76 -12 0 -51 -36 -51 -47 0 -6 6 -16 14
-22 21 -17 83 14 67 33 -9 11 -6 12 16 8 21 -4 25 -2 20 11 -4 11 1 17 16 19
13 2 22 10 21 20 -1 10 4 14 12 11 8 -3 14 0 14 5 0 6 7 18 16 27 12 12 13 19
5 29 -9 11 -8 14 4 12 18 -1 59 86 68 146 5 32 3 37 -16 41 l-22 4 21 2 c19 1
22 7 20 44 -1 23 -6 41 -12 40 -6 -1 -9 10 -6 26 2 17 -2 32 -12 40 -20 17
-21 41 -1 41 18 0 18 5 5 30 -6 11 -16 18 -23 16 -6 -1 -9 -1 -4 1 12 7 8 27
-12 53 -16 20 -22 22 -35 11 -8 -7 -20 -10 -26 -6 -8 5 -4 12 9 22 12 8 19 19
16 24 -9 13 -17 11 -44 -12z"/>
<path d="M735 673 c-11 -26 -19 -51 -18 -55 2 -4 -6 -10 -17 -13 -18 -6 -20
-15 -20 -80 l0 -74 -23 22 c-13 12 -38 30 -56 40 -44 23 -35 41 22 45 38 2 47
7 47 21 0 22 -19 31 -64 31 -40 0 -72 -22 -80 -56 -10 -40 1 -59 54 -92 28
-17 50 -38 50 -46 0 -24 -33 -37 -69 -26 -27 7 -31 6 -31 -10 0 -12 -9 -19
-31 -22 -30 -5 -31 -4 -11 11 25 20 42 53 42 81 0 34 -20 18 -49 -38 -24 -48
-44 -69 -39 -39 2 7 -6 11 -19 10 -28 -3 -29 4 -2 33 20 21 20 23 4 51 -15 26
-14 16 2 -24 5 -12 3 -14 -8 -8 -8 4 -11 5 -7 0 4 -4 1 -14 -7 -22 -8 -8 -15
-23 -15 -32 0 -13 -10 -20 -32 -24 -18 -4 -44 -9 -57 -13 -17 -5 -22 -4 -17 4
11 18 0 14 -15 -5 -10 -11 -10 -14 -1 -9 6 4 12 3 12 -3 0 -18 -20 -23 -26 -6
-4 9 2 26 12 38 l19 22 -22 -18 c-21 -19 -38 -58 -22 -54 5 1 16 -14 26 -33
l18 -35 274 -3 c244 -2 276 -1 293 14 24 22 23 60 -2 81 -11 10 -20 25 -20 35
0 15 -9 18 -50 18 l-50 0 2 113 c1 61 3 93 5 69 4 -36 7 -41 18 -32 19 16 35
4 35 -25 0 -13 5 -27 10 -30 6 -3 10 -24 10 -46 0 -22 4 -38 8 -35 4 2 7 26 5
53 -3 75 -4 80 -13 53 -7 -23 -8 -22 -9 11 -1 19 4 40 11 47 14 14 18 52 6 52
-4 0 -8 -9 -8 -19 0 -11 -5 -23 -11 -27 -13 -7 -3 33 12 52 6 7 1 21 -12 38
-17 21 -24 24 -35 15 -8 -6 -14 -22 -14 -35 0 -13 -5 -24 -10 -24 -12 0 -3 48
12 67 6 7 8 17 6 23 -2 6 -12 -10 -23 -37z"/>
<path d="M360 603 c-30 -12 -69 -57 -76 -87 -3 -17 -10 -35 -14 -41 -5 -6 1
-10 15 -10 13 0 21 3 18 8 -2 4 3 7 11 7 9 0 18 13 21 34 7 36 24 46 77 46 29
0 68 -40 68 -71 0 -23 -21 -69 -32 -69 -4 0 -8 -4 -8 -10 0 -19 20 -10 29 13
19 50 41 91 35 67 -4 -14 -3 -21 2 -17 12 11 12 137 1 137 -5 0 -6 -12 -2 -27
l7 -28 -26 24 c-25 23 -94 37 -126 24z"/>
<path d="M60 462 c0 -16 3 -32 7 -35 3 -4 7 -19 9 -34 4 -57 10 -68 35 -66 21
2 22 1 7 -8 -26 -15 -22 -32 5 -26 20 5 20 5 5 -7 -24 -18 -23 -30 3 -23 17 5
18 3 8 -9 -16 -19 -4 -30 16 -14 20 17 32 5 15 -15 -17 -20 -8 -27 24 -19 25
6 34 19 18 26 -30 12 -92 168 -92 231 0 23 -4 27 -30 27 -26 0 -30 -4 -30 -28z"/>
<path d="M282 130 c-18 -29 -15 -36 18 -50 27 -11 32 -11 45 6 13 18 14 18 8
-3 -6 -27 5 -30 22 -6 12 16 13 15 8 -8 -5 -25 -2 -26 66 -37 91 -15 89 -16
94 11 l4 22 2 -22 c1 -28 21 -31 21 -3 0 11 5 20 10 20 6 0 10 -7 10 -15 0
-28 27 -16 28 13 l1 27 -87 1 c-55 1 -104 7 -132 18 -25 9 -49 18 -55 19 -5 1
-16 8 -23 15 -18 17 -25 15 -40 -8z"/>
</g>
</svg>
